<?xml version="1.0" standalone="no"?><!DOCTYPE svg PUBLIC "-//W3C//DTD SVG 1.1//EN" "http://www.w3.org/Graphics/SVG/1.1/DTD/svg11.dtd"><svg t="1699264828478" class="icon" viewBox="0 0 1024 1024" version="1.1" xmlns="http://www.w3.org/2000/svg" p-id="21700" data-spm-anchor-id="a313x.search_index.0.i6.5d4b3a81Z7ZE49" xmlns:xlink="http://www.w3.org/1999/xlink" width="28" height="28"><path d="M245.2 535.8C12.3 275.4-97 127.5 119.5 83.4s280.3 50 280.3 50-27.7 243.2 217.2 99 312.5-25.1 329.6 43.4c16.2 64.4 314.3 689.7-427.5 693.1-163.1 0.8-300.3-126.8-307.1-289.8-3.7-90 33.2-143.3 33.2-143.3z" fill="#bfbfbf" p-id="21701" data-spm-anchor-id="a313x.search_index.0.i1.5d4b3a81Z7ZE49" class=""></path><path d="M273 684.1S403.3 970.5 693.7 954c163.9-33 283.6-98.2 317.6-269.9 5.4-20.4 13.1-131.1 5.2-139.1-7.9-8-416.6-224.6-416.6-224.6L273 684.1z" fill="#8a8a8a" p-id="21702" data-spm-anchor-id="a313x.search_index.0.i4.5d4b3a81Z7ZE49" class="selected"></path><path d="M282.9 210.6s50 46.1 125 32.7v161.5S281 535.5 277.2 697c65.4 88.4 42.3 23.1 130.7 34.6 88.4 11.5 150 53.8 150 53.8l134.6-53.8S937.2 786.2 645 394c7.7-107.7 0-147.1 0-147.1s109 0.3 143.6-45.9c-26.9-76.9-50-134.6-73.1-157.6-23.1-23.1-46.1 0-46.1 0s-105.8 196-251.9 13.4c-15.4-19.2-28.8-15.4-34.6-15.4-50.1 0.2-100 169.2-100 169.2z" fill="#E6FFFD" p-id="21703" data-spm-anchor-id="a313x.search_index.0.i0.5d4b3a81Z7ZE49" class=""></path><path d="M111.8 520.7m-16.3 0a16.3 16.3 0 1 0 32.6 0 16.3 16.3 0 1 0-32.6 0Z" fill="#3E6351" p-id="21704"></path><path d="M757.4 843.7m-7.9 0a7.9 7.9 0 1 0 15.8 0 7.9 7.9 0 1 0-15.8 0Z" fill="#FFFFFF" p-id="21705"></path><path d="M769.5 823.1m-3.6 0a3.6 3.6 0 1 0 7.2 0 3.6 3.6 0 1 0-7.2 0Z" fill="#FFFFFF" p-id="21706"></path><path d="M812.9 806.7m-2.5 0a2.5 2.5 0 1 0 5 0 2.5 2.5 0 1 0-5 0Z" fill="#FFFFFF" p-id="21707"></path><path d="M833.3 761.7m-2.5 0a2.5 2.5 0 1 0 5 0 2.5 2.5 0 1 0-5 0Z" fill="#FFFFFF" p-id="21708"></path><path d="M806.3 773.4c0.3-1.4 1.7-2.2 3-1.9 1.4 0.3 2.2 1.7 1.9 3" fill="#FFFFFF" p-id="21709"></path><path d="M724.6 802.4m-3.5 0a3.5 3.5 0 1 0 7 0 3.5 3.5 0 1 0-7 0Z" fill="#FFFFFF" p-id="21710"></path><path d="M794.2 435.1m-7.9 0a7.9 7.9 0 1 0 15.8 0 7.9 7.9 0 1 0-15.8 0Z" fill="#FFFFFF" p-id="21711"></path><path d="M806.2 414.4m-3.6 0a3.6 3.6 0 1 0 7.2 0 3.6 3.6 0 1 0-7.2 0Z" fill="#FFFFFF" p-id="21712"></path><path d="M849.7 398m-2.5 0a2.5 2.5 0 1 0 5 0 2.5 2.5 0 1 0-5 0Z" fill="#FFFFFF" p-id="21713"></path><path d="M870.1 353m-2.5 0a2.5 2.5 0 1 0 5 0 2.5 2.5 0 1 0-5 0Z" fill="#FFFFFF" p-id="21714"></path><path d="M843.1 364.7c0.3-1.4 1.7-2.2 3-1.9 1.4 0.3 2.2 1.7 1.9 3" fill="#FFFFFF" p-id="21715"></path><path d="M761.4 393.7m-3.5 0a3.5 3.5 0 1 0 7 0 3.5 3.5 0 1 0-7 0Z" fill="#FFFFFF" p-id="21716"></path><path d="M230.2 316.6m-7.9 0a7.9 7.9 0 1 0 15.8 0 7.9 7.9 0 1 0-15.8 0Z" fill="#FFFFFF" p-id="21717"></path><path d="M242.3 295.9m-3.6 0a3.6 3.6 0 1 0 7.2 0 3.6 3.6 0 1 0-7.2 0Z" fill="#FFFFFF" p-id="21718"></path><path d="M285.7 279.5m-2.5 0a2.5 2.5 0 1 0 5 0 2.5 2.5 0 1 0-5 0Z" fill="#FFFFFF" p-id="21719"></path><path d="M306.1 234.5m-2.5 0a2.5 2.5 0 1 0 5 0 2.5 2.5 0 1 0-5 0Z" fill="#FFFFFF" p-id="21720"></path><path d="M279.1 246.2c0.3-1.4 1.7-2.2 3-1.9 1.4 0.3 2.2 1.7 1.9 3" fill="#FFFFFF" p-id="21721"></path><path d="M197.4 275.2m-3.5 0a3.5 3.5 0 1 0 7 0 3.5 3.5 0 1 0-7 0Z" fill="#FFFFFF" p-id="21722"></path><path d="M306.9 733s11.1 11.4 18.2 10.9c2-5.1 68.4-274.3 101.1-290.7C397.7 469.6 306.9 733 306.9 733zM536.7 773l22.4 13.3-8.2-167.6zM708.3 732.6s-18.4-167-63.3-252.8c0 45 49 228.9 49 253.4 8.1 0 14.3-0.6 14.3-0.6zM476.2 112.7s58.4 97.3 127.9-0.7c-20.5 12.2-63.7 42.3-127.9 0.7z" fill="#E8C9C6" p-id="21723"></path><path d="M398.7 245.8l5.1-23.5 4.1 20.4zM628.6 226.4l20.4 61.3-4.1-40.9zM682.1 244.4l4.8-0.6-9.3-37.8z" fill="#B5E5E0" p-id="21724"></path></svg>