<?xml version="1.0" standalone="no"?><!DOCTYPE svg PUBLIC "-//W3C//DTD SVG 1.1//EN" "http://www.w3.org/Graphics/SVG/1.1/DTD/svg11.dtd"><svg t="1699264603705" class="icon" viewBox="0 0 1024 1024" version="1.1" xmlns="http://www.w3.org/2000/svg" p-id="3845" xmlns:xlink="http://www.w3.org/1999/xlink" width="28" height="28"><path d="M615.98 656.9m-300.58 0a300.58 300.58 0 1 0 601.16 0 300.58 300.58 0 1 0-601.16 0Z" fill="#bfbfbf" p-id="3846" data-spm-anchor-id="a313x.collections_detail.0.i28.6e233a81HaiZdO" class=""></path><path d="M771.7 931H245.82c-76.58 0-138.9-60.44-138.9-134.72V479.36a133.16 133.16 0 0 1 46.14-100.28L416 150.28a142 142 0 0 1 185.52 0l262.94 228.8a133.16 133.16 0 0 1 46.14 100.28v316.92c0 74.28-62.32 134.72-138.9 134.72zM508.76 166.74a90 90 0 0 0-59.26 22L186.56 417.58A82.12 82.12 0 0 0 158 479.36v316.92C158 842.42 197.38 880 245.82 880h525.88c48.44 0 87.86-37.54 87.86-83.68V479.36a82.12 82.12 0 0 0-28.6-61.78L568 188.78a90.12 90.12 0 0 0-59.24-22.04z" fill="#dbdbdb" p-id="3847" data-spm-anchor-id="a313x.collections_detail.0.i29.6e233a81HaiZdO" class=""></path><path d="M362.78 734.16m28.34 0l241.76 0q28.34 0 28.34 28.34l0 3.1q0 28.34-28.34 28.34l-241.76 0q-28.34 0-28.34-28.34l0-3.1q0-28.34 28.34-28.34Z" fill="#231815" p-id="3848" data-spm-anchor-id="a313x.collections_detail.0.i31.6e233a81HaiZdO" class=""></path><path d="M632.88 794.92H391.12a29.38 29.38 0 0 1-29.34-29.34v-3.08a29.38 29.38 0 0 1 29.34-29.34h241.76a29.38 29.38 0 0 1 29.34 29.34v3.08a29.38 29.38 0 0 1-29.34 29.34z m-241.76-59.76a27.36 27.36 0 0 0-27.34 27.34v3.08a27.36 27.36 0 0 0 27.34 27.34h241.76a27.36 27.36 0 0 0 27.34-27.34v-3.08a27.36 27.36 0 0 0-27.34-27.34z" fill="#231815" p-id="3849"></path></svg>