<?xml version="1.0" standalone="no"?><!DOCTYPE svg PUBLIC "-//W3C//DTD SVG 1.1//EN" "http://www.w3.org/Graphics/SVG/1.1/DTD/svg11.dtd"><svg t="1699264453135" class="icon" viewBox="0 0 1024 1024" version="1.1" xmlns="http://www.w3.org/2000/svg" p-id="1922" data-spm-anchor-id="a313x.collections_detail.0.i13.6e233a81HaiZdO" xmlns:xlink="http://www.w3.org/1999/xlink" width="28" height="28"><path d="M626.44 662.52m-244.78 0a244.78 244.78 0 1 0 489.56 0 244.78 244.78 0 1 0-489.56 0Z" fill="#bfbfbf" p-id="1923" data-spm-anchor-id="a313x.collections_detail.0.i8.6e233a81HaiZdO" class=""></path><path d="M791.86 919.74H239.1a139.54 139.54 0 0 1-139.38-139.4v-64.52a139.54 139.54 0 0 1 139.38-139.38h552.76a139.54 139.54 0 0 1 139.38 139.38v64.52a139.54 139.54 0 0 1-139.38 139.4zM239.1 628.44a87.48 87.48 0 0 0-87.38 87.38v64.52a87.48 87.48 0 0 0 87.38 87.4h552.76a87.48 87.48 0 0 0 87.38-87.4v-64.52a87.48 87.48 0 0 0-87.38-87.38z" fill="#cdcdcd" p-id="1924" data-spm-anchor-id="a313x.collections_detail.0.i11.6e233a81HaiZdO" class=""></path><path d="M515.48 628.88c-153.48 0-278.44-124.88-278.44-278.44S362 72 515.48 72 794 196.92 794 350.44s-125 278.44-278.52 278.44z m0-504.86A226.44 226.44 0 1 0 742 350.44 226.68 226.68 0 0 0 515.48 124z" fill="#cdcdcd" p-id="1925" data-spm-anchor-id="a313x.collections_detail.0.i9.6e233a81HaiZdO" class=""></path><path d="M339.06 376.44a26 26 0 0 1-26-26A199.18 199.18 0 0 1 512 151.5a26 26 0 0 1 0 52 147.12 147.12 0 0 0-146.94 146.94 26 26 0 0 1-26 26z" fill="#cdcdcd" p-id="1926" data-spm-anchor-id="a313x.collections_detail.0.i10.6e233a81HaiZdO" class=""></path></svg>