<?xml version="1.0" ?><svg height="60.890751" id="svg8" version="1.1" viewBox="0 0 16.110678 16.110678" width="60.890751" xmlns="http://www.w3.org/2000/svg" xmlns:cc="http://creativecommons.org/ns#" xmlns:dc="http://purl.org/dc/elements/1.1/" xmlns:inkscape="http://www.inkscape.org/namespaces/inkscape" xmlns:rdf="http://www.w3.org/1999/02/22-rdf-syntax-ns#" xmlns:sodipodi="http://sodipodi.sourceforge.net/DTD/sodipodi-0.dtd" xmlns:svg="http://www.w3.org/2000/svg"><defs id="defs2"/><g id="layer1" transform="translate(-35.908017,-280.4638)"><circle cx="43.963356" cy="288.51913" id="circle2583" r="8.0553389" style="opacity:1;fill:#ffd42a;fill-opacity:1;stroke:none;stroke-width:0.01055691;stroke-linecap:round;stroke-linejoin:round;stroke-miterlimit:4;stroke-dasharray:none;stroke-dashoffset:0;stroke-opacity:1"/><path d="m 38.495547,282.61393 a 8.055339,8.055339 0 0 0 -2.587439,5.90507 8.055339,8.055339 0 0 0 8.055322,8.05532 8.055339,8.055339 0 0 0 7.00474,-4.0876 8.055339,8.055339 0 0 1 -0.460953,0.40462 8.055339,8.055339 0 0 1 -0.654741,0.46819 8.055339,8.055339 0 0 1 -0.698665,0.40101 8.055339,8.055339 0 0 1 -0.734839,0.32866 8.055339,8.055339 0 0 1 -0.763778,0.25425 8.055339,8.055339 0 0 1 -0.785998,0.17622 8.055339,8.055339 0 0 1 -0.799435,0.0971 8.055339,8.055339 0 0 1 -0.569474,0.0202 8.055339,8.055339 0 0 1 -0.804085,-0.0403 8.055339,8.055339 0 0 1 -0.796334,-0.12041 8.055339,8.055339 0 0 1 -0.780314,-0.19947 8.055339,8.055339 0 0 1 -0.756543,-0.27595 8.055339,8.055339 0 0 1 -0.725021,-0.35037 8.055339,8.055339 0 0 1 -0.686263,-0.42065 8.055339,8.055339 0 0 1 -0.640787,-0.4873 8.055339,8.055339 0 0 1 -0.589112,-0.54881 8.055339,8.055339 0 0 1 -0.53175,-0.60513 8.055339,8.055339 0 0 1 -0.468189,-0.65474 8.055339,8.055339 0 0 1 -0.400492,-0.69867 8.055339,8.055339 0 0 1 -0.329179,-0.73483 8.055339,8.055339 0 0 1 -0.253731,-0.7643 8.055339,8.055339 0 0 1 -0.176217,-0.78548 8.055339,8.055339 0 0 1 -0.09715,-0.79943 8.055339,8.055339 0 0 1 -0.02015,-0.56948 8.055339,8.055339 0 0 1 0.04031,-0.8046 8.055339,8.055339 0 0 1 0.11989,-0.79582 8.055339,8.055339 0 0 1 0.199471,-0.78031 8.055339,8.055339 0 0 1 0.275952,-0.75654 8.055339,8.055339 0 0 1 0.350366,-0.72503 8.055339,8.055339 0 0 1 0.0646,-0.10542 z" id="path2585" style="opacity:1;fill:#ffbc2a;fill-opacity:1;stroke:none;stroke-width:0.01055691;stroke-linecap:round;stroke-linejoin:round;stroke-miterlimit:4;stroke-dasharray:none;stroke-dashoffset:0;stroke-opacity:1"/><circle cx="38.717545" cy="289.37396" id="circle2587" r="2.3521585" style="opacity:1;fill:#ff5555;fill-opacity:1;stroke:none;stroke-width:0.02315548;stroke-linecap:round;stroke-linejoin:round;stroke-miterlimit:4;stroke-dasharray:none;stroke-dashoffset:0;stroke-opacity:1"/><circle cx="49.207874" cy="289.37396" id="circle2589" r="2.3521585" style="opacity:1;fill:#ff5555;fill-opacity:1;stroke:none;stroke-width:0.02315548;stroke-linecap:round;stroke-linejoin:round;stroke-miterlimit:4;stroke-dasharray:none;stroke-dashoffset:0;stroke-opacity:1"/><path d="m 39.689525,289.78371 c 0,0 0.367496,4.15938 4.159382,4.15938" id="path2597" style="opacity:1;fill:none;fill-opacity:1;stroke:#1a1a1a;stroke-width:1.0583334;stroke-linecap:round;stroke-linejoin:round;stroke-miterlimit:4;stroke-dasharray:none;stroke-dashoffset:0;stroke-opacity:1"/><path d="m 48.008289,289.78371 c 0,0 -0.367496,4.15938 -4.159382,4.15938" id="path2599" style="opacity:1;fill:none;fill-opacity:1;stroke:#1a1a1a;stroke-width:1.0583334;stroke-linecap:round;stroke-linejoin:round;stroke-miterlimit:4;stroke-dasharray:none;stroke-dashoffset:0;stroke-opacity:1"/><ellipse cx="46.922508" cy="285.29636" id="path2601" rx="1.8936776" ry="1.8663778" style="opacity:1;fill:#ffffff;fill-opacity:1;stroke:none;stroke-width:0.81171393;stroke-linecap:round;stroke-linejoin:round;stroke-miterlimit:4;stroke-dasharray:none;stroke-dashoffset:0;stroke-opacity:1"/><ellipse cx="41.142803" cy="283.82639" id="ellipse2603" rx="1.8936776" ry="1.8663778" style="opacity:1;fill:#ffffff;fill-opacity:1;stroke:none;stroke-width:0.81171393;stroke-linecap:round;stroke-linejoin:round;stroke-miterlimit:4;stroke-dasharray:none;stroke-dashoffset:0;stroke-opacity:1"/><ellipse cx="40.474628" cy="282.75729" id="ellipse2605" rx="0.70726985" ry="0.69707364" style="opacity:1;fill:#1a1a1a;fill-opacity:1;stroke:none;stroke-width:0.3031671;stroke-linecap:round;stroke-linejoin:round;stroke-miterlimit:4;stroke-dasharray:none;stroke-dashoffset:0;stroke-opacity:1"/><ellipse cx="48.024994" cy="285.96454" id="ellipse2607" rx="0.70726985" ry="0.69707364" style="opacity:1;fill:#1a1a1a;fill-opacity:1;stroke:none;stroke-width:0.3031671;stroke-linecap:round;stroke-linejoin:round;stroke-miterlimit:4;stroke-dasharray:none;stroke-dashoffset:0;stroke-opacity:1"/></g></svg>