<?xml version="1.0" standalone="no"?><!DOCTYPE svg PUBLIC "-//W3C//DTD SVG 1.1//EN" "http://www.w3.org/Graphics/SVG/1.1/DTD/svg11.dtd"><svg t="1703926929392" class="icon" viewBox="0 0 1024 1024" version="1.1" xmlns="http://www.w3.org/2000/svg" p-id="11437" xmlns:xlink="http://www.w3.org/1999/xlink" width="28" height="28"><path d="M512 0c282.773333 0 512 229.226667 512 512S794.773333 1024 512 1024 0 794.773333 0 512 229.226667 0 512 0z" fill="#FFB400" p-id="11438"></path><path d="M512 21.333333C241.002667 21.333333 21.333333 241.002667 21.333333 512s219.669333 490.666667 490.666667 490.666667 490.666667-219.669333 490.666667-490.666667S782.997333 21.333333 512 21.333333z" fill="#FFB400" p-id="11439"></path><path d="M512 512m-490.666667 0a490.666667 490.666667 0 1 0 981.333334 0 490.666667 490.666667 0 1 0-981.333334 0Z" fill="#FFD217" p-id="11440"></path><path d="M42.666667 480a469.333333 458.666667 0 1 0 938.666666 0 469.333333 458.666667 0 1 0-938.666666 0Z" fill="#FFE20D" p-id="11441"></path><path d="M362.666667 106.666667c0 15.253333 28.458667 29.333333 74.666666 36.949333s103.125333 7.616 149.333334 0C632.874667 136 661.333333 121.92 661.333333 106.666667c0-15.253333-28.458667-29.333333-74.666666-36.949334s-103.125333-7.616-149.333334 0C391.125333 77.333333 362.666667 91.413333 362.666667 106.666667z" fill="#FFF1B7" p-id="11442"></path><path d="M522.666667 554.666667a74.666667 74.666667 0 0 1 74.666666 74.666666v106.666667a74.666667 74.666667 0 0 1-149.333333 0v-106.666667a74.666667 74.666667 0 0 1 74.666667-74.666666z" fill="#FFFFFF" p-id="11443"></path><path d="M533.333333 682.666667a21.333333 21.333333 0 0 1 21.333334 21.333333v128a21.333333 21.333333 0 0 1-42.666667 0v-128a21.333333 21.333333 0 0 1 21.333333-21.333333zM576 640a21.333333 21.333333 0 0 1 21.333333 21.333333v234.666667a21.333333 21.333333 0 0 1-42.666666 0V661.333333a21.333333 21.333333 0 0 1 21.333333-21.333333z" fill="#FFFFFF" p-id="11444"></path><path d="M512 533.333333a85.333333 85.333333 0 0 1 85.333333 85.333334v85.333333a85.333333 85.333333 0 1 1-170.666666 0v-85.333333a85.333333 85.333333 0 0 1 85.333333-85.333334z" fill="#443C25" p-id="11445"></path><path d="M512 640c34.901333 0 65.92 13.418667 85.354667 34.154667L597.333333 704a85.333333 85.333333 0 1 1-170.666666 0l-0.021334-29.845333C446.08 653.44 477.098667 640 512 640z" fill="#FC5965" p-id="11446"></path><path d="M682.666667 554.666667c0 35.349333 57.301333 64 128 64s128-28.650667 128-64-57.301333-64-128-64-128 28.650667-128 64zM85.333333 554.666667c0 35.349333 57.301333 64 128 64s128-28.650667 128-64-57.301333-64-128-64-128 28.650667-128 64z" fill="#FF9191" fill-opacity=".499" p-id="11447"></path><path d="M341.333333 394.666667a21.333333 21.333333 0 0 1 21.333334 21.333333c0 28.416-34.986667 64-85.333334 64-50.346667 0-85.333333-35.584-85.333333-64a21.333333 21.333333 0 0 1 42.666667 0c0-1.6 0.106667-1.792 0.341333-1.450667l0.426667 0.874667c1.493333 2.986667 3.712 6.122667 6.549333 9.002667 7.893333 8.064 19.2 12.906667 35.349333 12.906666s27.434667-4.842667 35.349334-12.906666c2.133333-2.133333 3.904-4.48 5.290666-6.741334l1.706667-3.136c0.213333-0.341333 0.32-0.149333 0.32 1.450667a21.333333 21.333333 0 0 1 21.333333-21.333333zM810.666667 394.666667a21.333333 21.333333 0 0 1 21.333333 21.333333c0 28.416-34.986667 64-85.333333 64-50.346667 0-85.333333-35.584-85.333334-64a21.333333 21.333333 0 0 1 42.666667 0c0-1.6 0.106667-1.792 0.341333-1.450667l0.426667 0.874667c1.493333 2.986667 3.712 6.122667 6.549333 9.002667 7.893333 8.064 19.2 12.906667 35.349334 12.906666s27.434667-4.842667 35.349333-12.906666c2.133333-2.133333 3.904-4.48 5.290667-6.741334l1.706666-3.136c0.213333-0.341333 0.32-0.149333 0.32 1.450667a21.333333 21.333333 0 0 1 21.333334-21.333333zM720.704 265.024l-53.781333-15.850667 18.645333-8.32 14.762667-6.4 15.786666-6.613333 9.130667-3.626667 8.32-3.072 4.821333-1.664 4.16-1.258666c4.992-1.365333 9.237333-3.904 10.965334-8 0.021333-0.085333 0.042667-0.170667 0.149333-0.234667l0.213333-0.469333 0.149334-0.576 0.426666-2.474667c0.576-6.442667-4.053333-12.928-11.264-15.018667l-90.453333-26.709333c-8.106667-2.432-16.597333 1.536-18.837333 8.682667-2.24 7.168 2.645333 15.061333 10.730666 17.493333l52.992 15.573333-74.624 30.570667a13.930667 13.930667 0 0 0-10.965333 8.042667l-0.704 1.877333c-2.24 7.168 2.645333 15.061333 10.730667 17.493333l90.453333 26.709334c8.106667 2.432 16.597333-1.536 18.837333-8.704 2.346667-7.232-2.56-15.018667-10.645333-17.450667zM939.776 184.106667l-67.626667-31.914667 25.6-5.525333 20.266667-4.138667 21.610667-4.117333 12.437333-2.133334 11.306667-1.706666 6.570666-0.832 5.589334-0.512c6.741333-0.426667 12.650667-2.453333 15.573333-6.976 0-0.085333 0.042667-0.192 0.213333-0.234667l0.341334-0.512 0.277333-0.64 0.917333-2.88c1.792-7.594667-3.242667-16.469333-12.288-20.714667l-113.706666-53.76c-10.154667-4.864-21.845333-2.133333-25.877334 5.909334-4.053333 8.042667 1.088 18.688 11.264 23.552l66.56 31.424-101.973333 18.709333c-6.912-0.32-12.565333 2.517333-15.530667 7.018667l-1.216 2.090666c-4.053333 8.042667 1.088 18.688 11.264 23.552l113.685334 53.76c10.154667 4.842667 21.845333 2.133333 25.877333-5.909333 4.202667-8.106667-0.981333-18.645333-11.136-23.509333z" fill="#443C25" p-id="11448"></path></svg>