<?xml version="1.0" standalone="no"?><!DOCTYPE svg PUBLIC "-//W3C//DTD SVG 1.1//EN" "http://www.w3.org/Graphics/SVG/1.1/DTD/svg11.dtd"><svg t="1703927460985" class="icon" viewBox="0 0 1024 1024" version="1.1" xmlns="http://www.w3.org/2000/svg" p-id="14544" xmlns:xlink="http://www.w3.org/1999/xlink" width="28" height="28"><path d="M512 0c282.773333 0 512 229.226667 512 512S794.773333 1024 512 1024 0 794.773333 0 512 229.226667 0 512 0z" fill="#FFB400" p-id="14545"></path><path d="M512 21.333333C241.002667 21.333333 21.333333 241.002667 21.333333 512s219.669333 490.666667 490.666667 490.666667 490.666667-219.669333 490.666667-490.666667S782.997333 21.333333 512 21.333333z" fill="#FFB400" p-id="14546"></path><path d="M512 512m-490.666667 0a490.666667 490.666667 0 1 0 981.333334 0 490.666667 490.666667 0 1 0-981.333334 0Z" fill="#FFD217" p-id="14547"></path><path d="M42.666667 480a469.333333 458.666667 0 1 0 938.666666 0 469.333333 458.666667 0 1 0-938.666666 0Z" fill="#FFE20D" p-id="14548"></path><path d="M362.666667 106.666667c0 15.253333 28.458667 29.333333 74.666666 36.949333s103.125333 7.616 149.333334 0C632.874667 136 661.333333 121.92 661.333333 106.666667c0-15.253333-28.458667-29.333333-74.666666-36.949334s-103.125333-7.616-149.333334 0C391.125333 77.333333 362.666667 91.413333 362.666667 106.666667z" fill="#FFF1B7" p-id="14549"></path><path d="M780.074667 356.544a20.352 20.352 0 0 1-14.634667 25.066667l-64.341333 28.074666 72.96 19.413334a20.458667 20.458667 0 1 1-10.666667 39.530666l-119.488-31.786666a20.736 20.736 0 0 1-4.757333-1.92 20.8 20.8 0 0 1-19.754667-15.189334 20.352 20.352 0 0 1 14.634667-25.045333l120.576-52.672a20.906667 20.906667 0 0 1 25.472 14.528z" fill="#443C25" p-id="14550"></path><path d="M288 416m-53.333333 0a53.333333 53.333333 0 1 0 106.666666 0 53.333333 53.333333 0 1 0-106.666666 0Z" fill="#443C25" p-id="14551"></path><path d="M554.666667 728.512l98.090666-87.744 53.333334 92.373333A64 64 0 0 1 682.666667 820.565333a64.362667 64.362667 0 0 1-87.744-23.253333l-40.234667-68.8z" fill="#FC5965" p-id="14552"></path><path d="M608 691.242667a10.666667 10.666667 0 0 1 14.570667 3.904l42.666666 73.898666a10.666667 10.666667 0 1 1-18.474666 10.666667l-42.666667-73.898667a10.666667 10.666667 0 0 1 3.904-14.570666z" fill="#FF1627" p-id="14553"></path><path d="M643.456 628.373333a21.333333 21.333333 0 1 1 35.776 23.253334C640.704 710.933333 578.133333 746.666667 512 746.666667c-66.090667 0-128.533333-35.690667-167.210667-95.018667a21.333333 21.333333 0 1 1 35.754667-23.296C411.52 675.882667 460.693333 704 512 704c51.349333 0 100.608-28.16 131.456-75.626667z" fill="#443C25" p-id="14554"></path><path d="M725.333333 554.666667c0 23.573333 38.186667 42.666667 85.333334 42.666666s85.333333-19.093333 85.333333-42.666666-38.186667-42.666667-85.333333-42.666667-85.333333 19.093333-85.333334 42.666667zM128 554.666667c0 23.573333 38.186667 42.666667 85.333333 42.666666s85.333333-19.093333 85.333334-42.666666-38.186667-42.666667-85.333334-42.666667-85.333333 19.093333-85.333333 42.666667z" fill="#FF9191" fill-opacity=".299" p-id="14555"></path></svg>