<?xml version="1.0" standalone="no"?><!DOCTYPE svg PUBLIC "-//W3C//DTD SVG 1.1//EN" "http://www.w3.org/Graphics/SVG/1.1/DTD/svg11.dtd"><svg t="1703926921306" class="icon" viewBox="0 0 1045 1024" version="1.1" xmlns="http://www.w3.org/2000/svg" p-id="11275" xmlns:xlink="http://www.w3.org/1999/xlink" width="28.57421875" height="28"><path d="M512 0c282.773333 0 512 229.226667 512 512S794.773333 1024 512 1024 0 794.773333 0 512 229.226667 0 512 0z" fill="#FFB400" p-id="11276"></path><path d="M512 21.333333C241.002667 21.333333 21.333333 241.002667 21.333333 512s219.669333 490.666667 490.666667 490.666667 490.666667-219.669333 490.666667-490.666667S782.997333 21.333333 512 21.333333z" fill="#FFB400" p-id="11277"></path><path d="M512 512m-490.666667 0a490.666667 490.666667 0 1 0 981.333334 0 490.666667 490.666667 0 1 0-981.333334 0Z" fill="#FFD217" p-id="11278"></path><path d="M42.666667 480a469.333333 458.666667 0 1 0 938.666666 0 469.333333 458.666667 0 1 0-938.666666 0Z" fill="#FFE20D" p-id="11279"></path><path d="M362.666667 106.666667c0 15.253333 28.458667 29.333333 74.666666 36.949333s103.125333 7.616 149.333334 0C632.874667 136 661.333333 121.92 661.333333 106.666667c0-15.253333-28.458667-29.333333-74.666666-36.949334s-103.125333-7.616-149.333334 0C391.125333 77.333333 362.666667 91.413333 362.666667 106.666667z" fill="#FFF1B7" p-id="11280"></path><path d="M646.250667 596.202667a21.333333 21.333333 0 0 1 40.576 13.205333c-21.866667 67.264-73.024 117.973333-136.917334 135.082667-63.850667 17.109333-133.397333-1.216-186.112-48.512a21.333333 21.333333 0 1 1 28.501334-31.744c42.24 37.888 97.002667 52.309333 146.56 39.04 49.578667-13.290667 89.898667-53.226667 107.392-107.072z" fill="#443C25" p-id="11281"></path><path d="M725.333333 576c0 23.573333 38.186667 42.666667 85.333334 42.666667s85.333333-19.093333 85.333333-42.666667-38.186667-42.666667-85.333333-42.666667-85.333333 19.093333-85.333334 42.666667zM128 576c0 23.573333 38.186667 42.666667 85.333333 42.666667s85.333333-19.093333 85.333334-42.666667-38.186667-42.666667-85.333334-42.666667-85.333333 19.093333-85.333333 42.666667z" fill="#FF9191" fill-opacity=".299" p-id="11282"></path><path d="M516.288 239.488c65.557333 0 112.426667 25.813333 136.832 76.650667l2.432 5.333333-39.125333 17.024c-16.448-37.845333-48.426667-56.32-100.138667-56.32-49.706667 0-81.173333 17.066667-98.154667 52.053333l-1.984 4.266667-39.125333-17.024c23.637333-54.357333 71.466667-81.984 139.264-81.984z" fill="#443C25" p-id="11283"></path><path d="M416.234667 204.117333c-70.528-13.781333-206.570667-18.368-287.189334 0-80.64 18.346667-85.674667 36.693333-110.848 87.210667-25.194667 50.453333-29.141333 171.648 20.138667 220.288 60.48 59.669333 166.272 55.082667 256.981333 0 90.688-55.082667 121.386667-88.277333 151.146667-128.512 29.76-40.234667 40.32-165.226667-30.229333-178.986667z" fill="#443C25" p-id="11284"></path><path d="M253.333333 192.064L115.328 551.125333c-29.44-5.76-55.957333-18.773333-76.992-39.509333-49.28-48.64-45.333333-169.813333-20.138667-220.288l9.344-18.794667 3.413334-6.634666 3.413333-6.186667C50.304 231.893333 68.053333 218.026667 129.066667 204.117333c34.453333-7.850667 79.04-11.52 124.288-12.053333zM295.850667 192.448c14.293333 0.426667 28.373333 1.130667 41.898666 2.069333L201.322667 549.461333c-15.082667 3.157333-30.058667 4.906667-44.629334 5.162667l139.157334-362.176z" fill="#FFFFFF" fill-opacity=".153" p-id="11285"></path><path d="M607.765333 204.117333c70.528-13.781333 206.570667-18.368 287.189334 0 58.837333 13.397333 77.44 26.794667 92.949333 52.672l3.413333 5.973334 3.413334 6.4 11.093333 22.165333c25.173333 50.453333 29.12 171.648-20.16 220.288-60.48 59.669333-166.272 55.082667-256.981333 0-8.234667-5.013333-16-9.813333-23.296-14.506667l-13.994667-9.130666c-6.72-4.458667-13.013333-8.768-18.922667-12.970667l-11.349333-8.234667a404.48 404.48 0 0 1-47.914667-41.173333l-6.72-7.04-3.2-3.52-6.122666-7.018667-5.845334-7.04-2.816-3.52-5.546666-7.125333-5.418667-7.253333c-29.76-40.213333-40.32-165.205333 30.229333-178.986667z" fill="#443C25" p-id="11286"></path><path d="M869.248 199.274667l-123.733333 321.898666c-5.653333-2.986667-11.264-6.186667-16.832-9.557333-8.234667-5.013333-16-9.813333-23.296-14.506667l-13.994667-9.130666c-6.72-4.458667-13.013333-8.768-18.922667-12.970667l-11.349333-8.234667a404.48 404.48 0 0 1-47.914667-41.173333l-6.72-7.04-3.2-3.52-6.122666-7.018667-5.845334-7.04-2.816-3.52-5.546666-7.125333-5.418667-7.253333c-29.76-40.213333-40.32-165.205333 30.229333-178.986667 63.488-12.373333 180.053333-17.344 261.482667-4.821333zM946.602667 220.053333L820.202667 548.906667a281.706667 281.706667 0 0 1-38.314667-11.370667l126.869333-330.112c15.573333 4.010667 27.861333 8.106667 37.845334 12.586667z" fill="#FFFFFF" fill-opacity=".103" p-id="11287"></path><path d="M929.28 426.666667a97.173333 97.173333 0 0 0 91.477333 97.002666l5.717334 0.192a97.237333 97.237333 0 0 0-97.066667 92.650667l-0.106667 4.650667a97.301333 97.301333 0 0 0-92.672-97.194667l-4.586666-0.106667a97.194667 97.194667 0 0 0 97.152-92.565333L929.28 426.666667z" fill="#FFFFFF" p-id="11288"></path></svg>