<?xml version="1.0" standalone="no"?><!DOCTYPE svg PUBLIC "-//W3C//DTD SVG 1.1//EN" "http://www.w3.org/Graphics/SVG/1.1/DTD/svg11.dtd"><svg t="1703927004968" class="icon" viewBox="0 0 1024 1024" version="1.1" xmlns="http://www.w3.org/2000/svg" p-id="12736" xmlns:xlink="http://www.w3.org/1999/xlink" width="28" height="28"><path d="M512 0c282.773333 0 512 229.226667 512 512S794.773333 1024 512 1024 0 794.773333 0 512 229.226667 0 512 0z" fill="#FFB400" p-id="12737"></path><path d="M512 21.333333C241.002667 21.333333 21.333333 241.002667 21.333333 512s219.669333 490.666667 490.666667 490.666667 490.666667-219.669333 490.666667-490.666667S782.997333 21.333333 512 21.333333z" fill="#FFB400" p-id="12738"></path><path d="M512 512m-490.666667 0a490.666667 490.666667 0 1 0 981.333334 0 490.666667 490.666667 0 1 0-981.333334 0Z" fill="#FFD217" p-id="12739"></path><path d="M42.666667 480a469.333333 458.666667 0 1 0 938.666666 0 469.333333 458.666667 0 1 0-938.666666 0Z" fill="#FFE20D" p-id="12740"></path><path d="M362.666667 106.666667c0 15.253333 28.458667 29.333333 74.666666 36.949333s103.125333 7.616 149.333334 0C632.874667 136 661.333333 121.92 661.333333 106.666667c0-15.253333-28.458667-29.333333-74.666666-36.949334s-103.125333-7.616-149.333334 0C391.125333 77.333333 362.666667 91.413333 362.666667 106.666667z" fill="#FFF1B7" p-id="12741"></path><path d="M898.346667 106.688c-35.925333 0.725333-67.754667 17.408-89.664 43.370667-22.933333-24.96-55.424-40.298667-91.242667-39.530667-67.690667 1.386667-120.106667 59.264-120.106667 129.194667C597.333333 394.666667 809.813333 490.773333 815.253333 490.666667 821.610667 490.538667 1024 394.666667 1024 239.722667 1024 169.664 965.930667 105.258667 898.346667 106.666667z" fill="#F76239" p-id="12742"></path><path d="M898.346667 106.688c53.653333-1.130667 101.312 39.232 118.677333 90.965333C992.192 303.146667 904.768 341.333333 815.253333 341.333333c-89.962667 0-184.469333-38.549333-210.773333-145.322666 16.533333-48.853333 60.074667-84.394667 112.96-85.482667 35.84-0.768 68.309333 14.549333 91.242667 39.530667 21.909333-25.962667 53.738667-42.645333 89.642666-43.370667z" fill="#F97B67" p-id="12743"></path><path d="M301.013333 106.688c-35.925333 0.725333-67.754667 17.408-89.664 43.370667-22.933333-24.96-55.424-40.298667-91.242666-39.530667C52.416 111.914667 0 169.792 0 239.722667 0 394.666667 212.48 490.773333 217.92 490.666667 224.277333 490.538667 426.666667 394.666667 426.666667 239.722667 426.666667 169.664 368.597333 105.258667 301.013333 106.666667z" fill="#F76239" p-id="12744"></path><path d="M301.013333 106.688c53.653333-1.130667 101.312 39.232 118.677334 90.965333C394.858667 303.146667 307.434667 341.333333 217.92 341.333333c-89.962667 0-184.469333-38.549333-210.773333-145.322666 16.533333-48.853333 60.074667-84.394667 112.96-85.482667 35.84-0.768 68.309333 14.549333 91.242666 39.530667 21.909333-25.962667 53.738667-42.645333 89.642667-43.370667z" fill="#F97B67" p-id="12745"></path><path d="M448 533.333333h149.333333a64 64 0 0 1 64 64v149.333334a128 128 0 0 1-128 128h-21.333333a128 128 0 0 1-128-128v-149.333334a64 64 0 0 1 64-64z" fill="#FFFFFF" p-id="12746"></path><path d="M597.333333 746.666667a21.333333 21.333333 0 0 1 21.333334 21.333333v128a21.333333 21.333333 0 0 1-42.666667 0v-128a21.333333 21.333333 0 0 1 21.333333-21.333333zM640 704a21.333333 21.333333 0 0 1 21.333333 21.333333v234.666667a21.333333 21.333333 0 0 1-42.666666 0V725.333333a21.333333 21.333333 0 0 1 21.333333-21.333333z" fill="#FFFFFF" p-id="12747"></path><path d="M405.333333 533.333333h213.333334a64 64 0 0 1 64 64v85.333334a149.333333 149.333333 0 0 1-149.333334 149.333333h-42.666666a149.333333 149.333333 0 0 1-149.333334-149.333333v-85.333334a64 64 0 0 1 64-64z" fill="#443C25" p-id="12748"></path><path d="M512 704c65.962667 0 124.138667 14.784 158.72 37.290667A149.333333 149.333333 0 0 1 533.333333 832h-42.666666a149.376 149.376 0 0 1-137.386667-90.688C387.861333 718.784 446.037333 704 512 704z" fill="#FC5965" p-id="12749"></path><path d="M725.333333 576c0 23.573333 38.186667 42.666667 85.333334 42.666667s85.333333-19.093333 85.333333-42.666667-38.186667-42.666667-85.333333-42.666667-85.333333 19.093333-85.333334 42.666667zM128 576c0 23.573333 38.186667 42.666667 85.333333 42.666667s85.333333-19.093333 85.333334-42.666667-38.186667-42.666667-85.333334-42.666667-85.333333 19.093333-85.333333 42.666667z" fill="#FF9191" fill-opacity=".299" p-id="12750"></path></svg>