<?xml version="1.0" standalone="no"?><!DOCTYPE svg PUBLIC "-//W3C//DTD SVG 1.1//EN" "http://www.w3.org/Graphics/SVG/1.1/DTD/svg11.dtd"><svg t="1701075564623" class="icon" viewBox="0 0 1024 1024" version="1.1" xmlns="http://www.w3.org/2000/svg" p-id="11609" xmlns:xlink="http://www.w3.org/1999/xlink" width="28" height="28"><path d="M832.851595 622.229219l129.691669-88.642407c15.185727-10.379813 15.185727-32.779411 0-43.157224l-129.691669-88.642408a38.311312 38.311312 0 0 1-16.033712-38.709304l29.025478-154.385226c3.397939-18.075675-12.441776-33.915391-30.517451-30.517452l-154.385226 29.025479a38.309312 38.309312 0 0 1-38.709305-16.033712L533.586972 61.471295c-10.377814-15.185727-32.779411-15.185727-43.157224 0L401.787341 191.162965a38.311312 38.311312 0 0 1-38.709305 16.033712L208.69081 178.171198c-18.077675-3.397939-33.915391 12.439776-30.517451 30.517452l29.025478 154.385226a38.309312 38.309312 0 0 1-16.033712 38.709304L61.473456 490.423588c-15.185727 10.379813-15.185727 32.779411 0 43.157224l129.691669 88.642407a38.311312 38.311312 0 0 1 16.033712 38.709305l-29.025478 154.389226c-3.397939 18.075675 12.441776 33.915391 30.517451 30.517451l154.385226-29.025478a38.309312 38.309312 0 0 1 38.709305 16.033712l88.642407 129.691669c10.377814 15.185727 32.779411 15.185727 43.157224 0l88.642408-129.691669a38.311312 38.311312 0 0 1 38.709304-16.033712l154.385226 29.025478c18.075675 3.397939 33.915391-12.441776 30.517452-30.517451l-29.025479-154.387226a38.315312 38.315312 0 0 1 16.037712-38.705305z" fill="#F7D88B" p-id="11610"></path><path d="M520.647205 512.0052m-280.894953 0a280.894953 280.894953 0 1 0 561.789905 0 280.894953 280.894953 0 1 0-561.789905 0Z" fill="#F49E73" p-id="11611" data-spm-anchor-id="a313x.search_index.0.i1.4f2d3a81gs1Ils" class="selected"></path><path d="M512.00936 792.892153c60.12092 0 115.821919-18.89766 161.509098-51.065083-305.354513-46.309168-333.102015-400.010812-185.238672-509.698841-144.021412 12.049783-257.157379 132.743615-257.157379 279.878971 0 155.127213 125.75774 280.884953 280.886953 280.884953zM680.910325 137.921922c-4.297923 0-8.667844-0.827985-12.885768-2.573954-17.195691-7.123872-25.363544-26.839518-18.241673-44.037209l29.195476-70.480733c7.121872-17.197691 26.843518-25.361544 44.037208-18.241673 17.195691 7.123872 25.363544 26.839518 18.241673 44.037209L712.061765 117.106296c-5.375903 12.979767-17.927678 20.815626-31.15144 20.815626zM990.274766 743.827034c-4.297923 0-8.667844-0.827985-12.885768-2.573953l-70.482734-29.195476c-17.195691-7.123872-25.363544-26.839518-18.241672-44.037208s26.841518-25.361544 44.037209-18.241673l70.482733 29.195476c17.195691 7.123872 25.363544 26.839518 18.241672 44.037208-5.375903 12.981767-17.927678 20.815626-31.15144 20.815626zM104.198688 376.801629c-4.297923 0-8.667844-0.827985-12.885769-2.573953l-70.482733-29.195476c-17.195691-7.123872-25.363544-26.839518-18.241672-44.037209s26.841518-25.363544 44.037208-18.241672l70.482734 29.195476c17.195691 7.123872 25.363544 26.839518 18.241672 44.037208-5.375903 12.979767-17.927678 20.815626-31.15144 20.815626zM313.88692 1023.996c-4.297923 0-8.667844-0.827985-12.883768-2.573954-17.195691-7.123872-25.363544-26.839518-18.241673-44.037208l29.195476-70.480734c7.121872-17.197691 26.841518-25.361544 44.037208-18.241672 17.195691 7.123872 25.363544 26.839518 18.241673 44.037209l-29.195476 70.480733c-5.377903 12.981767-17.929678 20.815626-31.15344 20.815626zM343.106395 137.921922c-13.227762 0-25.773537-7.833859-31.15144-20.815626l-29.195476-70.480734c-7.121872-17.195691 1.043981-36.913337 18.241673-44.037209 17.195691-7.117872 36.913337 1.043981 44.037208 18.241673l29.195476 70.480733c7.121872 17.195691-1.043981 36.913337-18.241673 44.037209a33.619396 33.619396 0 0 1-12.885768 2.573954zM33.741954 743.827034c-13.227762 0-25.775537-7.833859-31.15144-20.815626-7.121872-17.197691 1.043981-36.913337 18.241672-44.037208l70.482733-29.195476c17.193691-7.121872 36.913337 1.041981 44.037209 18.241673 7.121872 17.197691-1.043981 36.913337-18.241672 44.037208l-70.482734 29.195476a33.583397 33.583397 0 0 1-12.885768 2.573953zM919.818032 376.801629c-13.227762 0-25.775537-7.833859-31.15144-20.815626-7.121872-17.197691 1.043981-36.913337 18.241672-44.037208l70.482734-29.195476c17.195691-7.119872 36.913337 1.041981 44.037208 18.241672 7.121872 17.197691-1.043981 36.913337-18.241672 44.037209l-70.482733 29.195476a33.545397 33.545397 0 0 1-12.885769 2.573953zM710.1298 1023.996c-13.227762 0-25.775537-7.833859-31.15144-20.815626l-29.195476-70.480733c-7.121872-17.195691 1.043981-36.913337 18.241673-44.037209 17.193691-7.117872 36.911337 1.043981 44.037208 18.241672l29.195476 70.480734c7.121872 17.195691-1.043981 36.913337-18.241673 44.037208a33.583397 33.583397 0 0 1-12.885768 2.573954z" fill="#EF9067" p-id="11612"></path><path d="M387.749593 452.864263a46.959156 37.395328 0 1 0 93.918312 0 46.959156 37.395328 0 1 0-93.918312 0Z" fill="#F27281" p-id="11613"></path><path d="M642.285019 452.864263a46.959156 37.395328 0 1 0 93.918313 0 46.959156 37.395328 0 1 0-93.918313 0Z" fill="#F27281" p-id="11614"></path><path d="M462.086257 430.566663a14.99973 14.99973 0 0 1-14.99973-14.99973v-16.581702c0-8.283851 6.713879-14.99973 14.99973-14.999731s14.99973 6.715879 14.999731 14.999731v16.581702a14.99973 14.99973 0 0 1-14.999731 14.99973zM661.884667 430.566663a14.99973 14.99973 0 0 1-14.999731-14.99973v-16.581702a14.99973 14.99973 0 0 1 29.999461 0v16.581702a14.99973 14.99973 0 0 1-14.99973 14.99973zM561.986462 443.300434a49.929103 49.929103 0 0 1-37.647324-17.143692 14.99973 14.99973 0 0 1 22.617594-19.709645c3.795932 4.355922 9.275833 6.853877 15.03173 6.853876s11.233798-2.497955 15.02973-6.853876a14.99973 14.99973 0 0 1 22.617593 19.709645 49.949102 49.949102 0 0 1-37.649323 17.143692z" fill="#464D59" p-id="11615"></path></svg>